<svg xmlns="http://www.w3.org/2000/svg" version="1.1" xmlns:xlink="http://www.w3.org/1999/xlink" width="1000" height="1000"><style>
    #light-icon {
      display: inline;
    }
    #dark-icon {
      display: none;
    }

    @media (prefers-color-scheme: dark) {
      #light-icon {
        display: none;
      }
      #dark-icon {
        display: inline;
      }
    }
  </style><g id="light-icon"><svg xmlns="http://www.w3.org/2000/svg" version="1.1" xmlns:xlink="http://www.w3.org/1999/xlink" width="1000" height="1000"><g><g transform="matrix(7.575757575757576,0,0,7.575757575757576,0,340.9090909090909)"><svg xmlns="http://www.w3.org/2000/svg" version="1.1" xmlns:xlink="http://www.w3.org/1999/xlink" width="132" height="42"><svg width="132" height="42" viewBox="0 0 132 42" fill="none" xmlns="http://www.w3.org/2000/svg">
<path d="M11.72 0.719998C13.5573 0.719998 15.256 0.979997 16.816 1.5C18.4107 2.02 19.8147 2.73067 21.028 3.632L19.312 7.064C18.6187 6.544 17.856 6.09333 17.024 5.712C16.192 5.33067 15.3253 5.036 14.424 4.828C13.5573 4.62 12.7253 4.516 11.928 4.516C10.472 4.516 9.276 4.75867 8.34 5.244C7.404 5.72933 6.69333 6.44 6.208 7.376C5.75733 8.27733 5.532 9.42133 5.532 10.808C5.532 12.0213 5.74 13.1827 6.156 14.292C6.60667 15.4013 7.248 16.424 8.08 17.36C8.912 18.2613 9.91733 19.076 11.096 19.804C12.3093 20.532 13.6787 21.1387 15.204 21.624V40.5H10.628V24.016C8.82533 23.184 7.3 22.248 6.052 21.208C4.804 20.1333 3.79867 19.0067 3.036 17.828C2.27333 16.6493 1.71867 15.4533 1.372 14.24C1.02533 13.0267 0.852 11.8307 0.852 10.652C0.852 8.572 1.25067 6.804 2.048 5.348C2.88 3.85733 4.11067 2.71333 5.74 1.916C7.36933 1.11866 9.36267 0.719998 11.72 0.719998ZM32.0508 20.4414C32.0508 19.7135 32.1693 19.0449 32.4062 18.4355C32.6602 17.8092 33.0072 17.276 33.4473 16.8359C33.8874 16.3958 34.4206 16.0488 35.0469 15.7949C35.6901 15.541 36.4095 15.4141 37.2051 15.4141C38.0007 15.4141 38.7201 15.541 39.3633 15.7949C40.0065 16.0488 40.5566 16.3958 41.0137 16.8359C41.4538 17.276 41.7923 17.8092 42.0293 18.4355C42.2663 19.0449 42.3848 19.7135 42.3848 20.4414V21.9141C42.3848 22.6419 42.2663 23.3105 42.0293 23.9199C41.7923 24.5293 41.4538 25.054 41.0137 25.4941C40.5566 25.9512 40.0065 26.3066 39.3633 26.5605C38.737 26.7975 38.026 26.916 37.2305 26.916C36.4349 26.916 35.7155 26.7975 35.0723 26.5605C34.446 26.3066 33.9128 25.9512 33.4727 25.4941C33.0156 25.054 32.6602 24.5293 32.4062 23.9199C32.1693 23.3105 32.0508 22.6419 32.0508 21.9141V20.4414ZM69.0951 32.336C70.4471 34.1387 71.6604 35.404 72.7351 36.132C73.8444 36.86 74.6938 37.224 75.2831 37.224C75.9071 37.224 76.4618 37.172 76.9471 37.068C77.4324 36.964 77.8831 36.8427 78.2991 36.704V40.344C77.9178 40.552 77.3978 40.708 76.7391 40.812C76.1151 40.9507 75.4911 41.02 74.8671 41.02C74.1391 41.02 73.3418 40.864 72.4751 40.552C71.6084 40.2747 70.6551 39.72 69.6151 38.888C68.5751 38.0213 67.3964 36.756 66.0791 35.092C64.8311 36.6867 63.6698 37.9173 62.5951 38.784C61.5551 39.6507 60.5844 40.24 59.6831 40.552C58.8164 40.864 57.9844 41.02 57.1871 41.02C56.5631 41.02 55.9218 40.9507 55.2631 40.812C54.6391 40.708 54.1191 40.552 53.7031 40.344V36.704C53.9111 36.7733 54.3098 36.8773 54.8991 37.016C55.4884 37.1547 56.0258 37.224 56.5111 37.224C57.3431 37.224 58.2791 36.8773 59.3191 36.184C60.3591 35.456 61.5724 34.1733 62.9591 32.336C61.1564 30.4293 59.6831 28.5227 58.5391 26.616C57.4298 24.7093 56.8751 22.8027 56.8751 20.896C56.8751 19.232 57.2564 17.7587 58.0191 16.476C58.7818 15.1587 59.8391 14.1187 61.1911 13.356C62.5778 12.5933 64.2071 12.212 66.0791 12.212C67.9511 12.212 69.5631 12.5933 70.9151 13.356C72.3018 14.1187 73.3591 15.1587 74.0871 16.476C74.8498 17.7587 75.2311 19.232 75.2311 20.896C75.2311 22.2133 74.9364 23.548 74.3471 24.9C73.7578 26.2173 72.9951 27.5 72.0591 28.748C71.1578 29.996 70.1698 31.192 69.0951 32.336ZM89.5352 20.4414C89.5352 19.7135 89.6536 19.0449 89.8906 18.4355C90.1445 17.8092 90.4915 17.276 90.9316 16.8359C91.3717 16.3958 91.9049 16.0488 92.5312 15.7949C93.1745 15.541 93.8939 15.4141 94.6895 15.4141C95.485 15.4141 96.2044 15.541 96.8477 15.7949C97.4909 16.0488 98.041 16.3958 98.498 16.8359C98.9382 17.276 99.2767 17.8092 99.5137 18.4355C99.7507 19.0449 99.8691 19.7135 99.8691 20.4414V21.9141C99.8691 22.6419 99.7507 23.3105 99.5137 23.9199C99.2767 24.5293 98.9382 25.054 98.498 25.4941C98.041 25.9512 97.4909 26.3066 96.8477 26.5605C96.2214 26.7975 95.5104 26.916 94.7148 26.916C93.9193 26.916 93.1999 26.7975 92.5566 26.5605C91.9303 26.3066 91.3971 25.9512 90.957 25.4941C90.5 25.054 90.1445 24.5293 89.8906 23.9199C89.6536 23.3105 89.5352 22.6419 89.5352 21.9141V20.4414ZM120.287 0.719998C122.679 0.719998 124.673 1.11866 126.267 1.916C127.897 2.71333 129.11 3.85733 129.907 5.348C130.739 6.804 131.155 8.572 131.155 10.652C131.155 11.8307 130.982 13.0267 130.635 14.24C130.289 15.4533 129.734 16.6493 128.971 17.828C128.209 19.0067 127.203 20.1333 125.955 21.208C124.707 22.248 123.182 23.184 121.379 24.016V40.5H116.803V21.624C118.329 21.1387 119.681 20.532 120.859 19.804C122.073 19.076 123.095 18.2613 123.927 17.36C124.759 16.424 125.383 15.4013 125.799 14.292C126.25 13.1827 126.475 12.0213 126.475 10.808C126.475 9.42133 126.25 8.27733 125.799 7.376C125.349 6.44 124.638 5.72933 123.667 5.244C122.731 4.75867 121.535 4.516 120.079 4.516C119.282 4.516 118.45 4.62 117.583 4.828C116.717 5.036 115.85 5.33067 114.983 5.712C114.151 6.09333 113.389 6.544 112.695 7.064L110.979 3.632C112.193 2.73067 113.597 2.02 115.191 1.5C116.786 0.979997 118.485 0.719998 120.287 0.719998Z" fill="black"></path>
</svg></svg></g></g></svg></g><g id="dark-icon"><svg xmlns="http://www.w3.org/2000/svg" version="1.1" xmlns:xlink="http://www.w3.org/1999/xlink" width="1000" height="1000"><g><g transform="matrix(7.575757575757576,0,0,7.575757575757576,0,344.6969696969697)"><svg xmlns="http://www.w3.org/2000/svg" version="1.1" xmlns:xlink="http://www.w3.org/1999/xlink" width="132" height="41"><svg width="132" height="41" viewBox="0 0 132 41" fill="none" xmlns="http://www.w3.org/2000/svg">
<path d="M11.72 0.434353C13.5573 0.434353 15.256 0.694353 16.816 1.21435C18.4107 1.73435 19.8147 2.44502 21.028 3.34635L19.312 6.77836C18.6187 6.25835 17.856 5.80769 17.024 5.42635C16.192 5.04502 15.3253 4.75035 14.424 4.54235C13.5573 4.33435 12.7253 4.23035 11.928 4.23035C10.472 4.23035 9.276 4.47302 8.34 4.95835C7.404 5.44369 6.69333 6.15435 6.208 7.09035C5.75733 7.99169 5.532 9.13569 5.532 10.5224C5.532 11.7357 5.74 12.897 6.156 14.0064C6.60667 15.1157 7.248 16.1384 8.08 17.0744C8.912 17.9757 9.91733 18.7904 11.096 19.5184C12.3093 20.2464 13.6787 20.853 15.204 21.3384V40.2144H10.628V23.7304C8.82533 22.8984 7.3 21.9624 6.052 20.9224C4.804 19.8477 3.79867 18.721 3.036 17.5424C2.27333 16.3637 1.71867 15.1677 1.372 13.9544C1.02533 12.741 0.852 11.545 0.852 10.3664C0.852 8.28636 1.25067 6.51835 2.048 5.06235C2.88 3.57169 4.11067 2.42769 5.74 1.63035C7.36933 0.83302 9.36267 0.434353 11.72 0.434353ZM32.0508 20.1558C32.0508 19.4279 32.1693 18.7593 32.4062 18.1499C32.6602 17.5236 33.0072 16.9904 33.4473 16.5503C33.8874 16.1102 34.4206 15.7632 35.0469 15.5093C35.6901 15.2554 36.4095 15.1284 37.2051 15.1284C38.0007 15.1284 38.7201 15.2554 39.3633 15.5093C40.0065 15.7632 40.5566 16.1102 41.0137 16.5503C41.4538 16.9904 41.7923 17.5236 42.0293 18.1499C42.2663 18.7593 42.3848 19.4279 42.3848 20.1558V21.6284C42.3848 22.3563 42.2663 23.0249 42.0293 23.6343C41.7923 24.2437 41.4538 24.7684 41.0137 25.2085C40.5566 25.6655 40.0065 26.021 39.3633 26.2749C38.737 26.5119 38.026 26.6304 37.2305 26.6304C36.4349 26.6304 35.7155 26.5119 35.0723 26.2749C34.446 26.021 33.9128 25.6655 33.4727 25.2085C33.0156 24.7684 32.6602 24.2437 32.4062 23.6343C32.1693 23.0249 32.0508 22.3563 32.0508 21.6284V20.1558ZM69.0951 32.0504C70.4471 33.853 71.6604 35.1184 72.7351 35.8464C73.8444 36.5744 74.6938 36.9384 75.2831 36.9384C75.9071 36.9384 76.4618 36.8864 76.9471 36.7824C77.4324 36.6784 77.8831 36.557 78.2991 36.4184V40.0584C77.9178 40.2664 77.3978 40.4224 76.7391 40.5264C76.1151 40.665 75.4911 40.7344 74.8671 40.7344C74.1391 40.7344 73.3418 40.5784 72.4751 40.2664C71.6084 39.989 70.6551 39.4344 69.6151 38.6024C68.5751 37.7357 67.3964 36.4704 66.0791 34.8064C64.8311 36.401 63.6698 37.6317 62.5951 38.4984C61.5551 39.365 60.5844 39.9544 59.6831 40.2664C58.8164 40.5784 57.9844 40.7344 57.1871 40.7344C56.5631 40.7344 55.9218 40.665 55.2631 40.5264C54.6391 40.4224 54.1191 40.2664 53.7031 40.0584V36.4184C53.9111 36.4877 54.3098 36.5917 54.8991 36.7304C55.4884 36.869 56.0258 36.9384 56.5111 36.9384C57.3431 36.9384 58.2791 36.5917 59.3191 35.8984C60.3591 35.1704 61.5724 33.8877 62.9591 32.0504C61.1564 30.1437 59.6831 28.237 58.5391 26.3304C57.4298 24.4237 56.8751 22.517 56.8751 20.6104C56.8751 18.9464 57.2564 17.473 58.0191 16.1904C58.7818 14.873 59.8391 13.833 61.1911 13.0704C62.5778 12.3077 64.2071 11.9264 66.0791 11.9264C67.9511 11.9264 69.5631 12.3077 70.9151 13.0704C72.3018 13.833 73.3591 14.873 74.0871 16.1904C74.8498 17.473 75.2311 18.9464 75.2311 20.6104C75.2311 21.9277 74.9364 23.2624 74.3471 24.6144C73.7578 25.9317 72.9951 27.2144 72.0591 28.4624C71.1578 29.7104 70.1698 30.9064 69.0951 32.0504ZM89.5352 20.1558C89.5352 19.4279 89.6536 18.7593 89.8906 18.1499C90.1445 17.5236 90.4915 16.9904 90.9316 16.5503C91.3717 16.1102 91.9049 15.7632 92.5312 15.5093C93.1745 15.2554 93.8939 15.1284 94.6895 15.1284C95.485 15.1284 96.2044 15.2554 96.8477 15.5093C97.4909 15.7632 98.041 16.1102 98.498 16.5503C98.9382 16.9904 99.2767 17.5236 99.5137 18.1499C99.7507 18.7593 99.8691 19.4279 99.8691 20.1558V21.6284C99.8691 22.3563 99.7507 23.0249 99.5137 23.6343C99.2767 24.2437 98.9382 24.7684 98.498 25.2085C98.041 25.6655 97.4909 26.021 96.8477 26.2749C96.2214 26.5119 95.5104 26.6304 94.7148 26.6304C93.9193 26.6304 93.1999 26.5119 92.5566 26.2749C91.9303 26.021 91.3971 25.6655 90.957 25.2085C90.5 24.7684 90.1445 24.2437 89.8906 23.6343C89.6536 23.0249 89.5352 22.3563 89.5352 21.6284V20.1558ZM120.287 0.434353C122.679 0.434353 124.673 0.83302 126.267 1.63035C127.897 2.42769 129.11 3.57169 129.907 5.06235C130.739 6.51835 131.155 8.28636 131.155 10.3664C131.155 11.545 130.982 12.741 130.635 13.9544C130.289 15.1677 129.734 16.3637 128.971 17.5424C128.209 18.721 127.203 19.8477 125.955 20.9224C124.707 21.9624 123.182 22.8984 121.379 23.7304V40.2144H116.803V21.3384C118.329 20.853 119.681 20.2464 120.859 19.5184C122.073 18.7904 123.095 17.9757 123.927 17.0744C124.759 16.1384 125.383 15.1157 125.799 14.0064C126.25 12.897 126.475 11.7357 126.475 10.5224C126.475 9.13569 126.25 7.99169 125.799 7.09035C125.349 6.15435 124.638 5.44369 123.667 4.95835C122.731 4.47302 121.535 4.23035 120.079 4.23035C119.282 4.23035 118.45 4.33435 117.583 4.54235C116.717 4.75035 115.85 5.04502 114.983 5.42635C114.151 5.80769 113.389 6.25835 112.695 6.77836L110.979 3.34635C112.193 2.44502 113.597 1.73435 115.191 1.21435C116.786 0.694353 118.485 0.434353 120.287 0.434353Z" fill="#28FF12"></path>
</svg></svg></g></g></svg></g></svg>